<?xml version="1.0" encoding="UTF-8"?>
<svg version="1.1" viewBox="0 0 2048 1364" width="1280" height="1280" xmlns="http://www.w3.org/2000/svg">
<path transform="translate(899,268)" d="m0 0h345l16 5 11 6 11 8 6 7 8 14 9 16 11 18 12 22 13 22 12 21 16 27 12 22 12 20 20 35 14 25 9 15 8 14 12 20 6 12 4 12v26l-3 8-4 11-12 20-9 16-11 19-12 20-15 27-16 28-11 19-12 21-12 20-14 24-6 11-8 13-4 6-1 184-1 1-1 11-4 8-3 8-5 8-10 17-10 18-10 17-7 13-9 14-12 22-9 14-8 7-11 5-6 2h-261l-5-2-6-1-7-4-8-8-9-14-12-20-10-18-12-20-8-14-18-30-6-11-5-9-1-7-1-1-1-161-11-21-6-10-9-16-8-13-8-14-9-16-6-10-11-18-12-22-11-19-12-20-6-11-9-16-6-10-7-11-8-16-5-8-15-25-5-16-1-1v-24l6-17 6-10 20-35 9-15 13-23 12-21 12-20 26-46 12-20 13-23 13-22 24-42 16-24 9-9 14-9 11-4h8z"/>
<path transform="translate(1257,329)" d="m0 0 3 1 12 21 15 26 8 14 14 24 16 28 15 26 14 24 24 42 14 24 12 21 15 26 7 12v7l-14 24-16 28-30 52-14 24-13 23-14 24-15 26-11 19-12 21-15 26-13 22-3-1-10-18-24-42-14-24-13-23-15-26-16-28-14-24-13-23-14-24-13-23-21-36 6-12 14-24 14-25 13-22 10-18 16-27 14-25 10-17 16-28 15-26 16-28 13-23 10-17z" fill="#B3B3B3"/>
<path transform="translate(883,328)" d="m0 0 4 1 10 18 14 24 12 21 15 26 14 24 30 52 14 24 15 26 11 19 15 26 10 17 8 14-1 4-16 28-11 19-15 26-14 24-45 78-14 24-14 25-11 19-12 21-14 24-4 4-7-10-14-25-10-17-13-23-14-24-12-21-14-24-16-28-15-26-14-24-8-14-14-24-9-16v-4l158-1 52-1 6-4 2-4v-10l-4-6-3-2-210-1-1-5 15-26 28-48 16-28 14-24 11-19 12-21 14-24 15-26 16-28 14-24z" fill="#B3B3B3"/>
<path transform="translate(1072,649)" d="m0 0 3 4 14 25 14 24 32 56 15 26 13 23 12 21 15 26 14 24 13 23 12 21 5 9h-324l2-5 11-20 16-27 15-26 14-24 16-28 14-24 14-25 13-22 13-23 10-17 15-26 8-14z" fill="#B3B3B3"/>
<path transform="translate(910,310)" d="m0 0h323l-1 4-11 20-10 17-14 24-16 28-13 23-14 24-13 23-15 26-16 28-15 26-14 24-8 14-3-1-9-17-10-17-16-28-15-26-14-24-24-42-14-24-12-21-14-24-15-26-14-24-3-5z" fill="#B3B3B3"/>
<path transform="translate(1126,625)" d="m0 0h246l12 2 1 1v13l-6 16-6 12-8 13-3 5-1 2h-2v3h-2l-1 4-7 14-6 9-5 8-7 10-8 14-8 11-6 11-4 6-8 16-6 8-7 11-6 8h-2l-1 3-10 7-4 2h-8l-8-4-6-5v-2l-3-1-8-12-10-17-6-11-8-13-4-8-8-13-7-11-9-15-5-9-6-10-6-9-7-14-8-12-6-14-7-21-5-6z" fill="#939393"/>
<path transform="translate(1070,746)" d="m0 0 10 1 6 3 8 6 8 11 4 7 9 14 8 14 8 13 4 7 11 20 3 4v2h2l7 13 3 13-1 7-3 5-11 6-3 1-23 2h-27l-30-1-32-2-19-5-10-5-4-7v-13l8-16 4-10 8-13 7-12 4-9 11-21 12-19 5-8 10-7z" fill="#939393"/>
<path transform="translate(1192,986)" d="m0 0 3 1 10 18 10 17 13 23 14 24 8 14-1 5-9 16-14 24-12 21-14 24-6 9-4-4-15-26-17-28-13-23-9-15 1-5 14-24 16-28 10-17 12-21z"/>
<path transform="translate(1183,965)" d="m0 0h20l13 24 14 24 24 42 15 26 1 6-9 16-14 24-10 18-14 24-14 25-7 11h-18l-8-13-13-23-15-27-14-24-11-20-7-12 1-5 14-25 14-24 14-25 14-24zm9 21-13 23-16 27-13 23-14 24 1 5 13 22 15 26 8 13 11 19 8 13h3l13-22 15-26 14-24 12-21 1-5-15-26-16-28-13-23-10-17-2-3z" fill="#B3B3B3"/>
<path transform="translate(988,966)" d="m0 0h19l5 8 14 24 16 28 14 24 10 18 6-9 14-25 14-24 15-26 10-18h19l-1 4-14 25-14 24-15 26-13 23-10 17 5 10 14 24 16 28 15 26 14 24 3 5v3h-19l-5-8-16-28-15-26-13-23-9-15-1-1-11 20-10 17-16 28-13 23-8 13h-18l-1-3 12-21 15-26 10-17 15-26 14-24 1-3-30-52-16-28-13-23-9-15z" fill="#B5B5B5"/>
<path transform="translate(954,965)" d="m0 0h19l-2 5-32 56-15 27-11 20-1 3h75l6 5 1 5-5 6-6 2h-72l11 20 9 15 15 26 14 24 13 22-1 4h-15l-4-4-11-19-16-27-15-26-16-27-9-16 1-6 10-18 9-15 17-29 15-26 11-19z" fill="#B3B3B3"/>
<path transform="translate(877,338)" d="m0 0 1 2-14 25-20 35-14 24-8 14-9 16-15 26-16 27-10 18-10 17-8 14-9 15-16 28-2 6h75l132 1v1h-209l-1-5 15-26 28-48 16-28 14-24 11-19 12-21 14-24 15-26 16-28z" fill="#939393"/>
<path transform="translate(1386,551)" d="m0 0 3 3 14 24 9 16 14 24v7l-14 24-16 28-30 52-14 24-13 23-14 24-15 26-11 19-2 1 1-4 8-14 6-12 9-15 14-25 10-17 9-16 24-42 14-24 12-21 17-29 3-4-1-5-13-23-14-24-10-18z" fill="#939393"/>
<path transform="translate(895,1066)" d="m0 0 1 2-7 13v6l10 17 14 24 16 27 15 26 12 20 1 1 13 1-4-9-8-14-13-22-10-17-14-24-12-21v-3l2-1h19l53 1v1h-72l11 20 9 15 15 26 14 24 13 22-1 4h-15l-4-4-11-19-16-27-15-26-16-27-9-16 1-6z" fill="#939393"/>
<path transform="translate(728,645)" d="m0 0 4 4 9 16 14 24 16 28 10 17 9 16 11 19 14 24 13 23 16 27 11 20 10 17 13 23 6 9 3-3 13-23 10-16 1 2-13 23-10 17-4 4-7-10-14-25-10-17-13-23-14-24-12-21-14-24-16-28-15-26-14-24-8-14-14-24-5-9z" fill="#939393"/>
<path transform="translate(957,311)" d="m0 0h243l6 1v2h-53l-188-1-8-1z" fill="#FEFEFE"/>
<path transform="translate(899,743)" d="m0 0 6 2 1 2h-2l-2 4-5 3 2 4-1 4-6 3v5l2 1-1 4-6 3-2 3-5 1-2-2v-2l-1-3-2-12 6-2 2-5 4-2 1-5 4-2 2-2z" fill="#939393"/>
<path transform="translate(1038,530)" d="m0 0 4 5 11 17 6 10 10 15 4 2h2l2-5 10-16 7-10h2l2-5 1 3-14 24-12 21-3-1-9-17-10-17-13-23z" fill="#EBEBEB"/>
<path transform="translate(1140,532)" d="m0 0h2l-2 6-14 24-8 16-13 24-7 13-1 9h-4l-1 2-3-5 14-25 14-24 13-23z" fill="#EFEFEF"/>
<path transform="translate(1258,1064)" d="m0 0 3 3 9 16-1 6-8 14-14 24-10 18-14 24-14 25-7 11h-18v-3l1 1h14l4-4 12-22 12-20 11-20 10-17 13-23 6-10-1-6-8-15z" fill="#939393"/>
<path transform="translate(954,965)" d="m0 0h19l-2 5-3 5h-2v-6l-1-1h-8l-4 4-9 16-5 9-11 18h-2l2-5 10-18 11-19z" fill="#DFDFDF"/>
<path transform="translate(1028,576)" d="m0 0 4 4 15 26 8 14-1 4-4 4v-8l-6-11-8-16-6-11-2-3z" fill="#E7E7E7"/>
<path transform="translate(1249,348)" d="m0 0 1 3-3 7-2 4h-2l-2 5-12 17-4 4 1-6 5-8 3-3 8-13z" fill="#F2F2F2"/>
<path transform="translate(724,636)" d="m0 0h88v1l-86 1 2 7-3-3z" fill="#939393"/>
<path transform="translate(1140,532)" d="m0 0h2l-2 6-14 24-5 10-4 2 2-6 16-27z" fill="#DADADA"/>
<path transform="translate(1217,1142)" d="m0 0 1 2-12 22-6 10-5 8-4-1-6-11 1-2 7 11 3-3 15-26z" fill="#939393"/>
<path transform="translate(1257,334)" d="m0 0 4 4 5 10v2l-5-2-7-3-1-4z" fill="#FEFEFE"/>
<path transform="translate(1147,1028)" d="m0 0h2l-2 6-9 15-6 11-4 7-1-4 14-24z" fill="#D8D8D8"/>
<path transform="translate(1072,649)" d="m0 0 3 4v3l-5 2-8 13-4 5 1-5 12-21z" fill="#DFDFDF"/>
<path transform="translate(942,988)" d="m0 0 1 2-9 16-6 9h-2l2-5 10-18z" fill="#E6E6E6"/>
<path transform="translate(1229,927)" d="m0 0h3v3h-58v-1l54-1z" fill="#FCFCFC"/>
<path transform="translate(1092,1027)" d="m0 0v3l-8 14-8 12-1-2 11-20 3-5z" fill="#E2E2E2"/>
<path transform="translate(988,966)" d="m0 0h19l2 2-1 4-1-2-3-1h-10l-1 3h-2z" fill="#ddd"/>
<path transform="translate(1111,991)" d="m0 0h2l-2 5-12 22-2 1 1-5z" fill="#DCDCDC"/>
<path transform="translate(1223,390)" d="m0 0 1 3-8 13-5 8-1-4 11-19z" fill="#DFDFDF"/>
<path transform="translate(1128,555)" d="m0 0v3l-7 14-4 2 2-6 7-12z" fill="#DFDFDF"/>
<path transform="translate(981,1077)" d="m0 0h8l4 4 1 5-5 6-3-1 4-4-1-7-8-2z" fill="#E2E2E2"/>
<path transform="translate(951,970)" d="m0 0h2l-2 6-6 10-3 3-1-2z" fill="#DEDEDE"/>
<path transform="translate(1194,438)" d="m0 0h2l-2 6-6 11-2 1 1-6z" fill="#DBDBDB"/>
<path transform="translate(883,328)" d="m0 0 4 1 6 11-1 2-6-10-4 1-3 5-1-2z" fill="#939393"/>
<path transform="translate(1242,354)" d="m0 0 2 1-2 4-9 15-1-2z" fill="#A6A6A6"/>
<path transform="translate(1184,458)" d="m0 0 1 2-8 13-1-4 6-10z" fill="#DFDFDF"/>
<path transform="translate(1131,967)" d="m0 0h12l-1 5h-3l1-2-9-2z" fill="#F1F1F1"/>
<path transform="translate(1028,576)" d="m0 0 4 4 5 10-4-2-5-9z" fill="#DCDCDC"/>
<path transform="translate(1133,1053)" d="m0 0h2l-2 5-5 9-1-4z" fill="#E0E0E0"/>
<path transform="translate(926,1016)" d="m0 0v3l-7 11-1-3 5-9z" fill="#E7E7E7"/>
</svg>
